<svg xmlns="http://www.w3.org/2000/svg" xmlns:xlink="http://www.w3.org/1999/xlink" viewBox="0 0 118 118"><defs><style>.a{fill:#fff;}.b{filter:url(#a);}</style><filter id="a" x="0" y="0" width="118" height="118" filterUnits="userSpaceOnUse"><feOffset dy="3" input="SourceAlpha"/><feGaussianBlur stdDeviation="3" result="b"/><feFlood flood-color="#145815" flood-opacity="0.2"/><feComposite operator="in" in2="b"/><feComposite in="SourceGraphic"/></filter></defs><g class="b" transform="matrix(1, 0, 0, 1, 0, 0)"><path class="a" d="M-8337-1381a49.686,49.686,0,0,1-19.462-3.929,49.833,49.833,0,0,1-15.894-10.715,49.843,49.843,0,0,1-10.716-15.893A49.685,49.685,0,0,1-8387-1431a49.69,49.69,0,0,1,3.93-19.463,49.837,49.837,0,0,1,10.716-15.893,49.839,49.839,0,0,1,15.894-10.715A49.686,49.686,0,0,1-8337-1481a49.686,49.686,0,0,1,19.462,3.929,49.84,49.84,0,0,1,15.894,10.715,49.834,49.834,0,0,1,10.715,15.893A49.712,49.712,0,0,1-8287-1431a49.706,49.706,0,0,1-3.929,19.462,49.848,49.848,0,0,1-10.715,15.893,49.835,49.835,0,0,1-15.894,10.715A49.686,49.686,0,0,1-8337-1381Zm.278-45.236h0l11.391,11.391,4.485-4.485-11.392-11.394,11.213-11.21-4.307-4.307-11.213,11.213-11.213-11.215-4.487,4.485,11.215,11.215-11.215,11.215,4.307,4.3,11.214-11.212Z" transform="translate(8396 1487)"/></g></svg>