<svg xmlns="http://www.w3.org/2000/svg" xmlns:xlink="http://www.w3.org/1999/xlink" viewBox="0 0 82 82"><defs><style>.a{fill:#fff;}.b{filter:url(#a);}</style><filter id="a" x="0" y="0" width="82" height="82" filterUnits="userSpaceOnUse"><feOffset dy="3" input="SourceAlpha"/><feGaussianBlur stdDeviation="3" result="b"/><feFlood flood-color="#145815" flood-opacity="0.2"/><feComposite operator="in" in2="b"/><feComposite in="SourceGraphic"/></filter></defs><g class="b" transform="matrix(1, 0, 0, 1, 0, 0)"><path class="a" d="M-1083-6654a31.807,31.807,0,0,1-12.456-2.515,31.893,31.893,0,0,1-10.172-6.858,31.888,31.888,0,0,1-6.858-10.171A31.8,31.8,0,0,1-1115-6686a31.809,31.809,0,0,1,2.515-12.456,31.892,31.892,0,0,1,6.858-10.171,31.894,31.894,0,0,1,10.172-6.858A31.808,31.808,0,0,1-1083-6718a31.8,31.8,0,0,1,12.456,2.515,31.888,31.888,0,0,1,10.172,6.858,31.9,31.9,0,0,1,6.858,10.171A31.8,31.8,0,0,1-1051-6686a31.8,31.8,0,0,1-2.515,12.456,31.886,31.886,0,0,1-6.858,10.171,31.886,31.886,0,0,1-10.172,6.858A31.8,31.8,0,0,1-1083-6654Zm-12-29.633-2.716,2.715,8.145,8.146,21.722-21.722-2.714-2.715-19.008,19.006-5.429-5.431h0Z" transform="translate(1124 6724)"/></g></svg>